# xmcd
#
# Track frame offsets:
#	150
#	15772
#	27027
#	46395
#	64760
#	76520
#	91554
#	112795
#	121970
#	132312
#	146152
#	159372
#	168380
#	181787
#
# Disc length: 2750 seconds
#
# Revision: 1
# Processed by: cddbd v1.5.2PL0 Copyright (c) Steve Scherf et al.
# Submitted via: EZCDAudioConverter 4.0.5.1
#
DISCID=970abc0e
DTITLE=Steve Earle and The Del McCoury Band - The Mountain
DYEAR=1999
DGENRE=Country
TTITLE0=Texas Eagle
TTITLE1=Yours Forever Blue
TTITLE2=Carrie Brown
TTITLE3=I'm Still in Love With You
TTITLE4=The Graveyard Shift
TTITLE5=Harlan Man
TTITLE6=The Mountain
TTITLE7=Outlaw's Honeymoon
TTITLE8=Connemara Breakdown
TTITLE9=Leroy's Dustbowl Blues
TTITLE10=Dixieland
TTITLE11=Paddy on the Beat
TTITLE12=Long, Lonesome Highway Blues
TTITLE13=Pilgrim
EXTD=
EXTT0=
EXTT1=
EXTT2=
EXTT3=
EXTT4=
EXTT5=
EXTT6=
EXTT7=
EXTT8=
EXTT9=
EXTT10=
EXTT11=
EXTT12=
EXTT13=
PLAYORDER=
